<?xml version="1.0" encoding="UTF-8"?>
<svg version="1.1" xmlns="http://www.w3.org/2000/svg" width="186" height="186">
<path d="M0 0 C0 26.4 0 52.8 0 80 C8.58 80 17.16 80 26 80 C26 84.29 26 88.58 26 93 C17.42 93 8.84 93 0 93 C0.02320313 95.77148438 0.04640625 98.54296875 0.0703125 101.3984375 C0.08595462 104.1124628 0.09807334 106.82648289 0.10986328 109.54052734 C0.11985894 111.41229538 0.13345997 113.28404805 0.15087891 115.15576172 C0.17541268 117.86169246 0.18654768 120.56741499 0.1953125 123.2734375 C0.20563507 124.09677582 0.21595764 124.92011414 0.22659302 125.7684021 C0.22838874 135.27914948 -1.07321242 145.16237775 -7.39453125 152.65234375 C-15.99693179 160.87799682 -27.44291532 163.24853946 -39 163 C-47.68297924 162.16339178 -53.14160059 158.35939715 -58.703125 151.78125 C-63.11319629 145.72404364 -63.5140203 138.66045073 -62.70703125 131.34375 C-60.98405734 124.03556537 -56.61571866 118.83747734 -51 114 C-48.09502443 112.24404188 -45.24322902 110.98599123 -42 110 C-41.38898438 109.81179687 -40.77796875 109.62359375 -40.1484375 109.4296875 C-30.44574025 107.48914805 -21.92354257 109.14117078 -13 113 C-13 106.4 -13 99.8 -13 93 C-34.45 93 -55.9 93 -78 93 C-77.92114902 111.83147992 -77.92114902 111.83147992 -77.81982422 130.6628418 C-77.81397478 133.04996561 -77.8088803 135.43709145 -77.8046875 137.82421875 C-77.79445557 139.0316272 -77.78422363 140.23903564 -77.77368164 141.48303223 C-77.77124745 153.53108147 -77.82907061 167.60547816 -86.75390625 176.80859375 C-96.29853957 184.54071084 -107.97431801 187.0131527 -120 186 C-127.13435636 184.53198696 -132.16281426 181.94446489 -136.62890625 176.12890625 C-140.94285264 169.43061343 -141.99117606 162.91839544 -141 155 C-138.81146738 146.82241845 -135.0412149 140.59396289 -127.625 136.25 C-114.66833492 129.63337793 -104.9624582 131.70385902 -91 136 C-91 121.81 -91 107.62 -91 93 C-113.77 93 -136.54 93 -160 93 C-160 88.71 -160 84.42 -160 80 C-137.23 80 -114.46 80 -91 80 C-91 62.84 -91 45.68 -91 28 C-85.92860151 26.09822557 -80.9747738 24.30330249 -75.82470703 22.6875 C-75.15685181 22.47730225 -74.48899658 22.26710449 -73.80090332 22.05053711 C-71.62053606 21.36489294 -69.43919839 20.68239573 -67.2578125 20 C-65.72373035 19.5184045 -64.18970422 19.0366305 -62.6557312 18.5546875 C-59.45043184 17.54813559 -56.24468841 16.54301589 -53.03857422 15.5390625 C-48.95423994 14.26009261 -44.8706829 12.97866358 -40.78741646 11.69628906 C-36.86114993 10.46333781 -32.93449594 9.2316227 -29.0078125 8 C-28.27147709 7.76893555 -27.53514168 7.53787109 -26.77649307 7.29980469 C-22.1863586 5.85994678 -17.59392845 4.42770686 -13 3 C-11.46082916 2.51660156 -11.46082916 2.51660156 -9.89056396 2.0234375 C-8.5523056 1.60964844 -8.5523056 1.60964844 -7.18701172 1.1875 C-6.4381369 0.95417969 -5.68926208 0.72085937 -4.91769409 0.48046875 C-3 0 -3 0 0 0 Z M-20.79492188 35.72827148 C-22.0095813 36.10543808 -23.22424072 36.48260468 -24.47570801 36.87120056 C-25.80675678 37.28772053 -27.13776992 37.70435434 -28.46875 38.12109375 C-29.82867353 38.54488125 -31.18865973 38.96846769 -32.54870605 39.39186096 C-35.4007041 40.28037964 -38.25208729 41.17083671 -41.10302734 42.06274414 C-44.76075452 43.20695988 -48.41972097 44.34714977 -52.07912445 45.48599148 C-54.88817724 46.36053565 -57.69668614 47.23681532 -60.50502014 48.11366463 C-61.85411199 48.53474468 -63.20334478 48.95537348 -64.55271912 49.37554741 C-66.43737127 49.96277002 -68.32124418 50.55249179 -70.20507812 51.14233398 C-71.27826294 51.47764633 -72.35144775 51.81295868 -73.45715332 52.15843201 C-75.95451937 52.91745074 -75.95451937 52.91745074 -78 54 C-78 62.58 -78 71.16 -78 80 C-56.55 80 -35.1 80 -13 80 C-13 64.82 -13 49.64 -13 34 C-15.806416 34 -18.11342311 34.89243571 -20.79492188 35.72827148 Z " fill="#FFFFFF" transform="translate(160,0)"/>
</svg>
