<?xml version="1.0" encoding="UTF-8"?>
<svg version="1.1" xmlns="http://www.w3.org/2000/svg" width="186" height="186">
<path d="M0 0 C0.04680562 17.16832966 0.0820307 34.33663929 0.10362434 51.50501823 C0.11391896 59.47732557 0.12794446 67.44959317 0.15087891 75.421875 C0.1708685 82.37382762 0.18372961 89.32575145 0.18817699 96.27773201 C0.19077497 99.95573819 0.1968432 103.63366202 0.21146011 107.31164169 C0.22767883 111.42638489 0.22797613 115.54098663 0.22705078 119.65576172 C0.23424133 120.86345718 0.24143188 122.07115265 0.24884033 123.31544495 C0.22368332 133.68110072 -0.42943644 144.39958435 -7.39453125 152.65234375 C-15.99693179 160.87799682 -27.44291532 163.24853946 -39 163 C-47.68297924 162.16339178 -53.14160059 158.35939715 -58.703125 151.78125 C-63.11319629 145.72404364 -63.5140203 138.66045073 -62.70703125 131.34375 C-60.98405734 124.03556537 -56.61571866 118.83747734 -51 114 C-48.09502443 112.24404188 -45.24322902 110.98599123 -42 110 C-41.38898438 109.81179687 -40.77796875 109.62359375 -40.1484375 109.4296875 C-37.22749791 108.84549958 -34.41560842 108.75072241 -31.4375 108.6875 C-30.30183594 108.65011719 -29.16617188 108.61273438 -27.99609375 108.57421875 C-24 109 -24 109 -13 113 C-13 86.93 -13 60.86 -13 34 C-23.395 37.465 -23.395 37.465 -34 41 C-37.71952964 42.19117984 -41.4367606 43.37540973 -45.16796875 44.52734375 C-46.06574539 44.8059877 -46.96352203 45.08463165 -47.88850403 45.37171936 C-49.73155456 45.94303024 -51.57494804 46.51323606 -53.41870117 47.08227539 C-56.25364006 47.95792929 -59.08680442 48.839176 -61.91992188 49.72070312 C-63.73166896 50.28157917 -65.54351397 50.84213903 -67.35546875 51.40234375 C-68.61921577 51.79594337 -68.61921577 51.79594337 -69.90849304 52.19749451 C-75.77036876 54 -75.77036876 54 -78 54 C-77.99555878 55.19888351 -77.99111755 56.39776703 -77.98654175 57.63298035 C-77.94585888 68.97506692 -77.91595022 80.31713853 -77.89637566 91.65928173 C-77.88597364 97.48927559 -77.87188036 103.31921017 -77.84912109 109.14916992 C-77.82726437 114.78370554 -77.81540448 120.41818441 -77.81024551 126.05275917 C-77.80657267 128.19395146 -77.79940104 130.33514093 -77.78853989 132.47630882 C-77.61861688 167.38846239 -77.61861688 167.38846239 -86.75390625 176.80859375 C-96.29853957 184.54071084 -107.97431801 187.0131527 -120 186 C-127.13435636 184.53198696 -132.16281426 181.94446489 -136.62890625 176.12890625 C-140.94285264 169.43061343 -141.99117606 162.91839544 -141 155 C-138.81146738 146.82241845 -135.0412149 140.59396289 -127.625 136.25 C-114.66833492 129.63337793 -104.9624582 131.70385902 -91 136 C-91 100.36 -91 64.72 -91 28 C-85.92860151 26.09822557 -80.9747738 24.30330249 -75.82470703 22.6875 C-75.15685181 22.47730225 -74.48899658 22.26710449 -73.80090332 22.05053711 C-71.62053606 21.36489294 -69.43919839 20.68239573 -67.2578125 20 C-65.72373035 19.5184045 -64.18970422 19.0366305 -62.6557312 18.5546875 C-59.45043184 17.54813559 -56.24468841 16.54301589 -53.03857422 15.5390625 C-48.95423994 14.26009261 -44.8706829 12.97866358 -40.78741646 11.69628906 C-36.86114993 10.46333781 -32.93449594 9.2316227 -29.0078125 8 C-28.27147709 7.76893555 -27.53514168 7.53787109 -26.77649307 7.29980469 C-22.1863586 5.85994678 -17.59392845 4.42770686 -13 3 C-11.46082916 2.51660156 -11.46082916 2.51660156 -9.89056396 2.0234375 C-8.5523056 1.60964844 -8.5523056 1.60964844 -7.18701172 1.1875 C-6.4381369 0.95417969 -5.68926208 0.72085937 -4.91769409 0.48046875 C-3 0 -3 0 0 0 Z " fill="#FFFFFF" transform="translate(160,0)"/>
</svg>
